# xmcd CD database file
#
# Track frame offsets:
#	150
#	60140
#	100770
#	110720
#	124190
#	136890
#	151240
#	155540
#	187935
#	212125
#	244800
#	274245
#	289820
#
# Disc length: 4043 seconds
#
# Revision: 0
# Processed by: cddbd v1.5.1PL0 Copyright (c) Steve Scherf et al.
# Submitted via: CDex 1.51
#
DISCID=b60fc90d
DTITLE=Chet Baker - Conservatorio Cherubini Cd2
DYEAR=1956
DGENRE=Jazz
TTITLE0=A Night In Tunisia
TTITLE1=Cool Blues
TTITLE2=Baker 56
TTITLE3=Bockhanal
TTITLE4=I'll Remember April
TTITLE5=Every Time We Say Goodbye
TTITLE6=Newport Jazz Festival Intro
TTITLE7=Walkin'
TTITLE8=You Don't Know What Love Is
TTITLE9=Five Brothers
TTITLE10=Tiny's Blues
TTITLE11=Nicht In Tunisia
TTITLE12=You Don't Know What Love Is
EXTD=YEAR: 1956
EXTT0=
EXTT1=
EXTT2=
EXTT3=
EXTT4=
EXTT5=
EXTT6=
EXTT7=
EXTT8=
EXTT9=
EXTT10=
EXTT11=
EXTT12=
PLAYORDER=
